<svg xmlns="http://www.w3.org/2000/svg" xmlns:xlink="http://www.w3.org/1999/xlink" width="52.36" height="20.41"><defs><path id="a" d="M1.56-10.98c.06-1.04.24-1.87.53-2.5.3-.65.62-1.11.97-1.4.35-.28.66-.47.9-.54.27-.08.45-.13.57-.13h1.9V-.56H3.9V0h8.23v-.56H9.55v-15h1.89a2.58 2.58 0 0 1 1.51.64c.38.28.73.74 1.05 1.39.32.64.52 1.48.6 2.55h.7l-.25-5.13H1.02L.8-11zm0 0"/><path id="c" d="M9.97-.56H6.1V-15.5h2.5v-.56H.56v.6H3v14.9H.56V0h13.5l.25-5.4-.75.03a8.3 8.3 0 0 1-.51 2.56c-.23.6-.6 1.13-1.11 1.58-.5.44-1.16.67-1.97.67zm0 0"/><path id="b" d="M.53-13.44v.47l2 .03V-.47h-2V0H7.2v-.47H5.12V-6.6h5.41v6.14H8.5V0h6.69v-.47H13.1V-12.9h2v-.53H8.5v.53h2.03v5.7h-5.4v-5.71h2.01v-.52Zm0 0"/></defs><use xlink:href="#a" x="148.53" y="141.22" transform="translate(-149.33 -125.11)"/><use xlink:href="#b" x="160.02" y="145.52" transform="translate(-149.33 -125.11)"/><use xlink:href="#c" x="174.18" y="141.22" transform="translate(-149.33 -125.11)"/><use xlink:href="#c" x="187.37" y="141.22" transform="translate(-149.33 -125.11)"/></svg>